<svg width="100" height="100" viewBox="0 0 100 100" fill="none" xmlns="http://www.w3.org/2000/svg">
<path d="M39.3532 72.4324C36.9802 72.4324 35.1968 71.8945 34.0027 70.8188C32.8238 69.7568 32.2344 68.1639 32.2344 66.04V40.7598C32.2344 38.6221 32.8238 37.0223 34.0027 35.9603C35.1968 34.8846 36.9802 34.3467 39.3532 34.3467H78.5746C80.9626 34.3467 82.7461 34.8846 83.925 35.9603C85.1039 37.0361 85.6934 38.6359 85.6934 40.7598V66.04C85.6934 68.1639 85.1039 69.7568 83.925 70.8188C82.7461 71.8945 80.9626 72.4324 78.5746 72.4324H39.3532ZM54.6563 61.737L67.9871 54.5791C68.3045 54.3998 68.5161 54.1653 68.6219 53.8757C68.7277 53.5723 68.7277 53.2758 68.6219 52.9861C68.5161 52.6827 68.3045 52.4483 67.9871 52.2828L54.6563 45.0835C54.3238 44.9042 53.9762 44.8284 53.6134 44.8559C53.2507 44.8835 52.9409 44.9939 52.6839 45.1869C52.4421 45.38 52.3212 45.649 52.3212 45.9938V60.8267C52.3212 61.1715 52.4421 61.4473 52.6839 61.6542C52.9257 61.8611 53.2205 61.9783 53.5681 62.0059C53.9308 62.0335 54.2936 61.9438 54.6563 61.737Z" fill="#2C585A"/>
<g filter="url(#filter0_b_1928_15766)">
<path d="M34.3579 52.0424L34.3579 52.0424L34.3542 52.0445C33.9428 52.2791 33.5396 52.3766 33.1413 52.3464C32.755 52.3157 32.4349 52.1867 32.1734 51.963C31.9228 51.7486 31.7953 51.4647 31.7953 51.0941V33.275C31.7953 32.9053 31.9219 32.6328 32.1673 32.436C32.4472 32.2262 32.7878 32.1034 33.1955 32.0724C33.5986 32.0418 33.9848 32.1255 34.3577 32.3265L50.372 40.9751L50.3741 40.9762C50.7228 41.158 50.9456 41.4091 51.0573 41.7293L51.0581 41.7316C51.1714 42.0418 51.1725 42.3584 51.0578 42.6882C50.9465 42.9919 50.7232 43.245 50.3707 43.4444C50.3702 43.4447 50.3697 43.445 50.3692 43.4453L34.3579 52.0424ZM9.5141 63.2201C10.9904 64.5502 13.1796 65.2009 16.0519 65.2009H63.1692C66.0589 65.2009 68.2488 64.5505 69.7074 63.2198C71.1687 61.9032 71.8859 59.9382 71.8859 57.3568V26.9874C71.8859 24.4057 71.1685 22.4329 69.7078 21.1C68.2492 19.769 66.0592 19.1185 63.1692 19.1185H16.0519C13.1796 19.1185 10.9904 19.7692 9.51411 21.0993C8.05232 22.4161 7.33527 24.3896 7.33527 26.9874V57.3568C7.33527 59.9384 8.05253 61.9035 9.5141 63.2201Z" fill="black" fill-opacity="0.5" stroke="white" stroke-width="0.329462"/>
<g filter="url(#filter1_d_1928_15766)">
<path d="M50.4505 43.5876L34.4361 52.1865C34.0003 52.435 33.5646 52.5427 33.1288 52.5095C32.7112 52.4764 32.3571 52.3356 32.0666 52.087C31.7761 51.8385 31.6309 51.5072 31.6309 51.093V33.2739C31.6309 32.8597 31.7761 32.5366 32.0666 32.3047C32.3753 32.0727 32.7475 31.9402 33.1833 31.907C33.619 31.8739 34.0367 31.965 34.4361 32.1804L50.4505 40.829C50.8318 41.0278 51.086 41.3095 51.2131 41.674C51.3402 42.0219 51.3402 42.3781 51.2131 42.7426C51.086 43.0905 50.8318 43.3722 50.4505 43.5876Z" fill="#B3B3B3"/>
</g>
</g>
<g filter="url(#filter2_d_1928_15766)">
<path d="M75.4075 80.283C74.8475 80.283 74.3808 80.1001 74.0074 79.7343C73.6451 79.3685 73.4639 78.903 73.4639 78.3377V71.9864H72.9862C70.8669 71.9864 68.9892 72.197 67.353 72.6182C65.7169 73.0394 64.2729 73.7654 63.0211 74.7963C61.7692 75.816 60.6657 77.2348 59.7103 79.0526C59.4248 79.5847 59.1009 79.9228 58.7385 80.0669C58.3871 80.211 58.0357 80.283 57.6843 80.283C57.2451 80.283 56.8498 80.089 56.4984 79.7011C56.158 79.3242 55.9878 78.7755 55.9878 78.0551C55.9878 74.9847 56.3172 72.2247 56.9761 69.7751C57.6459 67.3144 58.6671 65.2139 60.0397 63.4736C61.4233 61.7334 63.1858 60.4033 65.327 59.4833C67.4793 58.5633 70.0324 58.1033 72.9862 58.1033H73.4639V51.8185C73.4639 51.2643 73.6451 50.7876 74.0074 50.3886C74.3808 49.9896 74.8585 49.79 75.4404 49.79C75.8358 49.79 76.1926 49.8843 76.5111 50.0727C76.8405 50.25 77.2248 50.5493 77.6641 50.9705L90.66 63.2409C90.9784 63.5401 91.198 63.845 91.3188 64.1553C91.4396 64.4657 91.5 64.7594 91.5 65.0365C91.5 65.3025 91.4396 65.5907 91.3188 65.9011C91.198 66.2115 90.9784 66.5163 90.66 66.8156L77.6641 79.2023C77.2688 79.5791 76.8899 79.8507 76.5276 80.017C76.1762 80.1943 75.8028 80.283 75.4075 80.283Z" fill="url(#paint0_linear_1928_15766)"/>
</g>
<defs>
<filter id="filter0_b_1928_15766" x="4.5352" y="16.3184" width="70.1513" height="51.6825" filterUnits="userSpaceOnUse" color-interpolation-filters="sRGB">
<feFlood flood-opacity="0" result="BackgroundImageFix"/>
<feGaussianBlur in="BackgroundImageFix" stdDeviation="1.31785"/>
<feComposite in2="SourceAlpha" operator="in" result="effect1_backgroundBlur_1928_15766"/>
<feBlend mode="normal" in="SourceGraphic" in2="effect1_backgroundBlur_1928_15766" result="shape"/>
</filter>
<filter id="filter1_d_1928_15766" x="27.6773" y="27.9468" width="27.5848" height="28.5223" filterUnits="userSpaceOnUse" color-interpolation-filters="sRGB">
<feFlood flood-opacity="0" result="BackgroundImageFix"/>
<feColorMatrix in="SourceAlpha" type="matrix" values="0 0 0 0 0 0 0 0 0 0 0 0 0 0 0 0 0 0 127 0" result="hardAlpha"/>
<feOffset/>
<feGaussianBlur stdDeviation="1.97677"/>
<feComposite in2="hardAlpha" operator="out"/>
<feColorMatrix type="matrix" values="0 0 0 0 0 0 0 0 0 0 0 0 0 0 0 0 0 0 0.9 0"/>
<feBlend mode="normal" in2="BackgroundImageFix" result="effect1_dropShadow_1928_15766"/>
<feBlend mode="normal" in="SourceGraphic" in2="effect1_dropShadow_1928_15766" result="shape"/>
</filter>
<filter id="filter2_d_1928_15766" x="50.4999" y="44.3022" width="42.8294" height="37.8103" filterUnits="userSpaceOnUse" color-interpolation-filters="sRGB">
<feFlood flood-opacity="0" result="BackgroundImageFix"/>
<feColorMatrix in="SourceAlpha" type="matrix" values="0 0 0 0 0 0 0 0 0 0 0 0 0 0 0 0 0 0 127 0" result="hardAlpha"/>
<feOffset dx="-1.82929" dy="-1.82929"/>
<feGaussianBlur stdDeviation="1.82929"/>
<feComposite in2="hardAlpha" operator="out"/>
<feColorMatrix type="matrix" values="0 0 0 0 0 0 0 0 0 0 0 0 0 0 0 0 0 0 0.5 0"/>
<feBlend mode="normal" in2="BackgroundImageFix" result="effect1_dropShadow_1928_15766"/>
<feBlend mode="normal" in="SourceGraphic" in2="effect1_dropShadow_1928_15766" result="shape"/>
</filter>
<linearGradient id="paint0_linear_1928_15766" x1="85.9108" y1="53.9302" x2="55.7456" y2="80.0028" gradientUnits="userSpaceOnUse">
<stop stop-color="white"/>
<stop offset="1" stop-color="#585858"/>
</linearGradient>
</defs>
</svg>
